{
    "asset" : {
        "generator" : "Khronos glTF Blender I/O v1.5.17",
        "version" : "2.0"
    },
    "scene" : 0,
    "scenes" : [
        {
            "name" : "Scene",
            "nodes" : [
                0,
                1,
                2,
                3
            ]
        }
    ],
    "nodes" : [
        {
            "name" : "Light.001",
            "rotation" : [
                0.16907575726509094,
                0.7558803558349609,
                -0.27217137813568115,
                0.570947527885437
            ],
            "translation" : [
                4.076245307922363,
                5.903861999511719,
                -1.0054539442062378
            ]
        },
        {
            "name" : "Camera",
            "rotation" : [
                0.483536034822464,
                0.33687159419059753,
                -0.20870360732078552,
                0.7804827094078064
            ],
            "translation" : [
                7.358891487121582,
                4.958309173583984,
                6.925790786743164
            ]
        },
        {
            "mesh" : 0,
            "name" : "Cylinder.005",
            "rotation" : [
                0.26025569438934326,
                0.6885750889778137,
                -0.29392120242118835,
                0.6097062230110168
            ],
            "scale" : [
                0.332719087600708,
                1.4225538969039917,
                0.332719087600708
            ],
            "translation" : [
                -1.0805251598358154,
                -1.9861544370651245,
                -0.15060603618621826
            ]
        },
        {
            "name" : "Light",
            "rotation" : [
                0.16907575726509094,
                0.7558803558349609,
                -0.27217137813568115,
                0.570947527885437
            ],
            "translation" : [
                4.076245307922363,
                5.903861999511719,
                -1.0054539442062378
            ]
        }
    ],
    "materials" : [
        {
            "doubleSided" : true,
            "name" : "Material.006",
            "pbrMetallicRoughness" : {
                "baseColorFactor" : [
                    0.08781567215919495,
                    0.011742201633751392,
                    0.8000000715255737,
                    1
                ],
                "metallicFactor" : 0,
                "roughnessFactor" : 0.5
            }
        },
        {
            "doubleSided" : true,
            "name" : "Material.007",
            "pbrMetallicRoughness" : {
                "baseColorFactor" : [
                    0.7940195202827454,
                    0.009189710021018982,
                    0.3091389536857605,
                    1
                ],
                "metallicFactor" : 0,
                "roughnessFactor" : 0.5
            }
        },
        {
            "doubleSided" : true,
            "name" : "Material.008",
            "pbrMetallicRoughness" : {
                "baseColorFactor" : [
                    0.0014029893791303039,
                    0.8000000715255737,
                    0.8000000715255737,
                    1
                ],
                "metallicFactor" : 0,
                "roughnessFactor" : 0.5
            }
        },
        {
            "doubleSided" : true,
            "name" : "Material.009",
            "pbrMetallicRoughness" : {
                "baseColorFactor" : [
                    0.0019139108480885625,
                    0.8000000715255737,
                    0.009021700359880924,
                    1
                ],
                "metallicFactor" : 0,
                "roughnessFactor" : 0.5
            }
        }
    ],
    "meshes" : [
        {
            "name" : "Cylinder.005",
            "primitives" : [
                {
                    "attributes" : {
                        "POSITION" : 0,
                        "NORMAL" : 1,
                        "TEXCOORD_0" : 2
                    },
                    "indices" : 3,
                    "material" : 0
                },
                {
                    "attributes" : {
                        "POSITION" : 4,
                        "NORMAL" : 5,
                        "TEXCOORD_0" : 6
                    },
                    "indices" : 7,
                    "material" : 1
                },
                {
                    "attributes" : {
                        "POSITION" : 8,
                        "NORMAL" : 9,
                        "TEXCOORD_0" : 10
                    },
                    "indices" : 11,
                    "material" : 2
                },
                {
                    "attributes" : {
                        "POSITION" : 12,
                        "NORMAL" : 13,
                        "TEXCOORD_0" : 14
                    },
                    "indices" : 15,
                    "material" : 3
                }
            ]
        }
    ],
    "accessors" : [
        {
            "bufferView" : 0,
            "componentType" : 5126,
            "count" : 1008,
            "max" : [
                1,
                1.366257667541504,
                8.882959365844727
            ],
            "min" : [
                -1,
                -1,
                -1
            ],
            "type" : "VEC3"
        },
        {
            "bufferView" : 1,
            "componentType" : 5126,
            "count" : 1008,
            "type" : "VEC3"
        },
        {
            "bufferView" : 2,
            "componentType" : 5126,
            "count" : 1008,
            "type" : "VEC2"
        },
        {
            "bufferView" : 3,
            "componentType" : 5123,
            "count" : 1116,
            "type" : "SCALAR"
        },
        {
            "bufferView" : 4,
            "componentType" : 5126,
            "count" : 2848,
            "max" : [
                3.0055391788482666,
                3.8338801860809326,
                -6.120976448059082
            ],
            "min" : [
                -3.005537986755371,
                2.4282824993133545,
                -12.130666732788086
            ],
            "type" : "VEC3"
        },
        {
            "bufferView" : 5,
            "componentType" : 5126,
            "count" : 2848,
            "type" : "VEC3"
        },
        {
            "bufferView" : 6,
            "componentType" : 5126,
            "count" : 2848,
            "type" : "VEC2"
        },
        {
            "bufferView" : 7,
            "componentType" : 5123,
            "count" : 2880,
            "type" : "SCALAR"
        },
        {
            "bufferView" : 8,
            "componentType" : 5126,
            "count" : 366,
            "max" : [
                1,
                2.9184837341308594,
                1.090930461883545
            ],
            "min" : [
                -1,
                0.8281110525131226,
                -8.114847183227539
            ],
            "type" : "VEC3"
        },
        {
            "bufferView" : 9,
            "componentType" : 5126,
            "count" : 366,
            "type" : "VEC3"
        },
        {
            "bufferView" : 10,
            "componentType" : 5126,
            "count" : 366,
            "type" : "VEC2"
        },
        {
            "bufferView" : 11,
            "componentType" : 5123,
            "count" : 372,
            "type" : "SCALAR"
        },
        {
            "bufferView" : 12,
            "componentType" : 5126,
            "count" : 734,
            "max" : [
                1,
                3.677177667617798,
                2.344294548034668
            ],
            "min" : [
                -1,
                0.4573644995689392,
                -10.893308639526367
            ],
            "type" : "VEC3"
        },
        {
            "bufferView" : 13,
            "componentType" : 5126,
            "count" : 734,
            "type" : "VEC3"
        },
        {
            "bufferView" : 14,
            "componentType" : 5126,
            "count" : 734,
            "type" : "VEC2"
        },
        {
            "bufferView" : 15,
            "componentType" : 5123,
            "count" : 744,
            "type" : "SCALAR"
        }
    ],
    "bufferViews" : [
        {
            "buffer" : 0,
            "byteLength" : 12096,
            "byteOffset" : 0
        },
        {
            "buffer" : 0,
            "byteLength" : 12096,
            "byteOffset" : 12096
        },
        {
            "buffer" : 0,
            "byteLength" : 8064,
            "byteOffset" : 24192
        },
        {
            "buffer" : 0,
            "byteLength" : 2232,
            "byteOffset" : 32256
        },
        {
            "buffer" : 0,
            "byteLength" : 34176,
            "byteOffset" : 34488
        },
        {
            "buffer" : 0,
            "byteLength" : 34176,
            "byteOffset" : 68664
        },
        {
            "buffer" : 0,
            "byteLength" : 22784,
            "byteOffset" : 102840
        },
        {
            "buffer" : 0,
            "byteLength" : 5760,
            "byteOffset" : 125624
        },
        {
            "buffer" : 0,
            "byteLength" : 4392,
            "byteOffset" : 131384
        },
        {
            "buffer" : 0,
            "byteLength" : 4392,
            "byteOffset" : 135776
        },
        {
            "buffer" : 0,
            "byteLength" : 2928,
            "byteOffset" : 140168
        },
        {
            "buffer" : 0,
            "byteLength" : 744,
            "byteOffset" : 143096
        },
        {
            "buffer" : 0,
            "byteLength" : 8808,
            "byteOffset" : 143840
        },
        {
            "buffer" : 0,
            "byteLength" : 8808,
            "byteOffset" : 152648
        },
        {
            "buffer" : 0,
            "byteLength" : 5872,
            "byteOffset" : 161456
        },
        {
            "buffer" : 0,
            "byteLength" : 1488,
            "byteOffset" : 167328
        }
    ],
    "buffers" : [
        {
            "byteLength" : 168816,
            "uri" : "data:application/octet-stream;base64,"
        }
    ]
}
