{
    "asset" : {
        "generator" : "Khronos glTF Blender I/O v1.5.17",
        "version" : "2.0"
    },
    "scene" : 0,
    "scenes" : [
        {
            "name" : "Scene",
            "nodes" : [
                0,
                1,
                2
            ]
        }
    ],
    "nodes" : [
        {
            "mesh" : 0,
            "name" : "Circle",
            "rotation" : [
                0.4869759976863861,
                0.18115995824337006,
                0.1040257066488266,
                0.8480648994445801
            ],
            "scale" : [
                0.3299776315689087,
                0.3299776315689087,
                0.3299776315689087
            ],
            "translation" : [
                0.34110093116760254,
                -0.4400860667228699,
                1.6672507524490356
            ]
        },
        {
            "name" : "Light",
            "rotation" : [
                0.01414325088262558,
                0.6586015224456787,
                -0.46008309721946716,
                0.5952879190444946
            ],
            "scale" : [
                0.5526815056800842,
                0.5526814460754395,
                0.5526815056800842
            ],
            "translation" : [
                2.593966245651245,
                2.097907066345215,
                -0.45742926001548767
            ]
        },
        {
            "name" : "Camera",
            "rotation" : [
                0.483536034822464,
                0.33687159419059753,
                -0.20870360732078552,
                0.7804827094078064
            ],
            "scale" : [
                0.5526814460754395,
                0.5526815056800842,
                0.5526814460754395
            ],
            "translation" : [
                4.173060417175293,
                2.7843871116638184,
                4.710515022277832
            ]
        }
    ],
    "materials" : [
        {
            "doubleSided" : true,
            "name" : "Material.017",
            "pbrMetallicRoughness" : {
                "baseColorFactor" : [
                    0.7133088111877441,
                    0.8000000715255737,
                    0.013914796523749828,
                    1
                ],
                "metallicFactor" : 0,
                "roughnessFactor" : 0.5
            }
        }
    ],
    "meshes" : [
        {
            "name" : "Circle.004",
            "primitives" : [
                {
                    "attributes" : {
                        "POSITION" : 0,
                        "NORMAL" : 1,
                        "TEXCOORD_0" : 2
                    },
                    "indices" : 3,
                    "material" : 0
                }
            ]
        }
    ],
    "accessors" : [
        {
            "bufferView" : 0,
            "componentType" : 5126,
            "count" : 104,
            "max" : [
                9.510564804077148,
                3.079094886779785,
                10
            ],
            "min" : [
                -9.510564804077148,
                -6.298909625002125e-07,
                -8.09017276763916
            ],
            "type" : "VEC3"
        },
        {
            "bufferView" : 1,
            "componentType" : 5126,
            "count" : 104,
            "type" : "VEC3"
        },
        {
            "bufferView" : 2,
            "componentType" : 5126,
            "count" : 104,
            "type" : "VEC2"
        },
        {
            "bufferView" : 3,
            "componentType" : 5123,
            "count" : 108,
            "type" : "SCALAR"
        }
    ],
    "bufferViews" : [
        {
            "buffer" : 0,
            "byteLength" : 1248,
            "byteOffset" : 0
        },
        {
            "buffer" : 0,
            "byteLength" : 1248,
            "byteOffset" : 1248
        },
        {
            "buffer" : 0,
            "byteLength" : 832,
            "byteOffset" : 2496
        },
        {
            "buffer" : 0,
            "byteLength" : 216,
            "byteOffset" : 3328
        }
    ],
    "buffers" : [
        {
            "byteLength" : 3544,
            "uri" : "data:application/octet-stream;base64,"
        }
    ]
}
