{
    "asset" : {
        "generator" : "Khronos glTF Blender I/O v1.5.17",
        "version" : "2.0"
    },
    "scene" : 0,
    "scenes" : [
        {
            "name" : "Scene",
            "nodes" : [
                0,
                1,
                2
            ]
        }
    ],
    "nodes" : [
        {
            "name" : "Camera",
            "rotation" : [
                0.483536034822464,
                0.33687159419059753,
                -0.20870360732078552,
                0.7804827094078064
            ],
            "translation" : [
                7.358891487121582,
                4.958309173583984,
                6.925790786743164
            ]
        },
        {
            "mesh" : 0,
            "name" : "Circle",
            "rotation" : [
                0.018515177071094513,
                -0.919367253780365,
                0.3928932845592499,
                0.007479153573513031
            ],
            "scale" : [
                2.368983507156372,
                2.368983507156372,
                2.368983507156372
            ]
        },
        {
            "mesh" : 1,
            "name" : "Sphere",
            "rotation" : [
                0.018515177071094513,
                -0.919367253780365,
                0.3928932845592499,
                0.007479153573513031
            ],
            "scale" : [
                2.294257164001465,
                2.294257164001465,
                2.294257164001465
            ]
        }
    ],
    "materials" : [
        {
            "doubleSided" : true,
            "name" : "Material.002",
            "pbrMetallicRoughness" : {
                "baseColorFactor" : [
                    0.022035595029592514,
                    0.31463587284088135,
                    0.8000000715255737,
                    1
                ],
                "metallicFactor" : 0,
                "roughnessFactor" : 0.5
            }
        },
        {
            "doubleSided" : true,
            "name" : "Material.004",
            "pbrMetallicRoughness" : {
                "baseColorFactor" : [
                    0.8000000715255737,
                    0.03079487755894661,
                    0.7091244459152222,
                    1
                ],
                "metallicFactor" : 0,
                "roughnessFactor" : 0.5
            }
        },
        {
            "doubleSided" : true,
            "name" : "Material.007",
            "pbrMetallicRoughness" : {
                "baseColorFactor" : [
                    0.7674846649169922,
                    0.8000000715255737,
                    0,
                    1
                ],
                "metallicFactor" : 0,
                "roughnessFactor" : 0.5
            }
        },
        {
            "doubleSided" : true,
            "name" : "Material.001",
            "pbrMetallicRoughness" : {
                "baseColorFactor" : [
                    0.8000000715255737,
                    0,
                    0.013934355229139328,
                    1
                ],
                "metallicFactor" : 0,
                "roughnessFactor" : 0.5
            }
        },
        {
            "doubleSided" : true,
            "name" : "Material.003",
            "pbrMetallicRoughness" : {
                "baseColorFactor" : [
                    0.048668958246707916,
                    0.8000000715255737,
                    0.01001172699034214,
                    1
                ],
                "metallicFactor" : 0,
                "roughnessFactor" : 0.5
            }
        },
        {
            "doubleSided" : true,
            "name" : "Material.005",
            "pbrMetallicRoughness" : {
                "baseColorFactor" : [
                    0.13507363200187683,
                    0.02686653845012188,
                    0.8000000715255737,
                    1
                ],
                "metallicFactor" : 0,
                "roughnessFactor" : 0.5
            }
        },
        {
            "doubleSided" : true,
            "name" : "Material.006",
            "pbrMetallicRoughness" : {
                "baseColorFactor" : [
                    0.800000011920929,
                    0.800000011920929,
                    0.800000011920929,
                    1
                ],
                "metallicFactor" : 0,
                "roughnessFactor" : 0.5
            }
        }
    ],
    "meshes" : [
        {
            "name" : "Circle.001",
            "primitives" : [
                {
                    "attributes" : {
                        "POSITION" : 0,
                        "NORMAL" : 1,
                        "TEXCOORD_0" : 2
                    },
                    "indices" : 3,
                    "material" : 0
                },
                {
                    "attributes" : {
                        "POSITION" : 4,
                        "NORMAL" : 5,
                        "TEXCOORD_0" : 6
                    },
                    "indices" : 7,
                    "material" : 1
                },
                {
                    "attributes" : {
                        "POSITION" : 8,
                        "NORMAL" : 9,
                        "TEXCOORD_0" : 10
                    },
                    "indices" : 11,
                    "material" : 2
                }
            ]
        },
        {
            "name" : "Sphere",
            "primitives" : [
                {
                    "attributes" : {
                        "POSITION" : 12,
                        "NORMAL" : 13,
                        "TEXCOORD_0" : 14
                    },
                    "indices" : 15,
                    "material" : 3
                },
                {
                    "attributes" : {
                        "POSITION" : 16,
                        "NORMAL" : 17,
                        "TEXCOORD_0" : 18
                    },
                    "indices" : 19,
                    "material" : 4
                },
                {
                    "attributes" : {
                        "POSITION" : 20,
                        "NORMAL" : 21,
                        "TEXCOORD_0" : 22
                    },
                    "indices" : 19,
                    "material" : 5
                },
                {
                    "attributes" : {
                        "POSITION" : 23,
                        "NORMAL" : 24,
                        "TEXCOORD_0" : 25
                    },
                    "indices" : 26,
                    "material" : 6
                }
            ]
        }
    ],
    "accessors" : [
        {
            "bufferView" : 0,
            "componentType" : 5126,
            "count" : 184,
            "max" : [
                1.5613319873809814,
                0,
                1.561332106590271
            ],
            "min" : [
                -1.561332106590271,
                -0.8936586380004883,
                -1.561332106590271
            ],
            "type" : "VEC3"
        },
        {
            "bufferView" : 1,
            "componentType" : 5126,
            "count" : 184,
            "type" : "VEC3"
        },
        {
            "bufferView" : 2,
            "componentType" : 5126,
            "count" : 184,
            "type" : "VEC2"
        },
        {
            "bufferView" : 3,
            "componentType" : 5123,
            "count" : 300,
            "type" : "SCALAR"
        },
        {
            "bufferView" : 4,
            "componentType" : 5126,
            "count" : 40,
            "max" : [
                1.5210951566696167,
                -0.1771269589662552,
                1.5210952758789062
            ],
            "min" : [
                -1.5210952758789062,
                -0.3686155676841736,
                -1.5210952758789062
            ],
            "type" : "VEC3"
        },
        {
            "bufferView" : 5,
            "componentType" : 5126,
            "count" : 40,
            "type" : "VEC3"
        },
        {
            "bufferView" : 6,
            "componentType" : 5126,
            "count" : 40,
            "type" : "VEC2"
        },
        {
            "bufferView" : 7,
            "componentType" : 5123,
            "count" : 60,
            "type" : "SCALAR"
        },
        {
            "bufferView" : 8,
            "componentType" : 5126,
            "count" : 40,
            "max" : [
                1.3521528244018555,
                0,
                1.3521533012390137
            ],
            "min" : [
                -1.3521533012390137,
                -0.8936586380004883,
                -1.3521531820297241
            ],
            "type" : "VEC3"
        },
        {
            "bufferView" : 9,
            "componentType" : 5126,
            "count" : 40,
            "type" : "VEC3"
        },
        {
            "bufferView" : 10,
            "componentType" : 5126,
            "count" : 40,
            "type" : "VEC2"
        },
        {
            "bufferView" : 11,
            "componentType" : 5123,
            "count" : 60,
            "type" : "SCALAR"
        },
        {
            "bufferView" : 12,
            "componentType" : 5126,
            "count" : 1600,
            "max" : [
                1.000000238418579,
                1,
                1.0000003576278687
            ],
            "min" : [
                -0.9999998211860657,
                -1,
                -1
            ],
            "type" : "VEC3"
        },
        {
            "bufferView" : 13,
            "componentType" : 5126,
            "count" : 1600,
            "type" : "VEC3"
        },
        {
            "bufferView" : 14,
            "componentType" : 5126,
            "count" : 1600,
            "type" : "VEC2"
        },
        {
            "bufferView" : 15,
            "componentType" : 5123,
            "count" : 2304,
            "type" : "SCALAR"
        },
        {
            "bufferView" : 16,
            "componentType" : 5126,
            "count" : 128,
            "max" : [
                0.9238796830177307,
                0.5555701851844788,
                0.923879861831665
            ],
            "min" : [
                -0.9238794445991516,
                0.3826834261417389,
                -0.9238795042037964
            ],
            "type" : "VEC3"
        },
        {
            "bufferView" : 17,
            "componentType" : 5126,
            "count" : 128,
            "type" : "VEC3"
        },
        {
            "bufferView" : 18,
            "componentType" : 5126,
            "count" : 128,
            "type" : "VEC2"
        },
        {
            "bufferView" : 19,
            "componentType" : 5123,
            "count" : 192,
            "type" : "SCALAR"
        },
        {
            "bufferView" : 20,
            "componentType" : 5126,
            "count" : 128,
            "max" : [
                0.7071069478988647,
                0.8314695954322815,
                0.7071070671081543
            ],
            "min" : [
                -0.7071067094802856,
                0.7071067690849304,
                -0.7071067690849304
            ],
            "type" : "VEC3"
        },
        {
            "bufferView" : 21,
            "componentType" : 5126,
            "count" : 128,
            "type" : "VEC3"
        },
        {
            "bufferView" : 22,
            "componentType" : 5126,
            "count" : 128,
            "type" : "VEC2"
        },
        {
            "bufferView" : 23,
            "componentType" : 5126,
            "count" : 128,
            "max" : [
                1.000000238418579,
                0.19509035348892212,
                1.0000003576278687
            ],
            "min" : [
                -0.9999998211860657,
                7.549790126404332e-08,
                -1
            ],
            "type" : "VEC3"
        },
        {
            "bufferView" : 24,
            "componentType" : 5126,
            "count" : 128,
            "type" : "VEC3"
        },
        {
            "bufferView" : 25,
            "componentType" : 5126,
            "count" : 128,
            "type" : "VEC2"
        },
        {
            "bufferView" : 26,
            "componentType" : 5123,
            "count" : 192,
            "type" : "SCALAR"
        }
    ],
    "bufferViews" : [
        {
            "buffer" : 0,
            "byteLength" : 2208,
            "byteOffset" : 0
        },
        {
            "buffer" : 0,
            "byteLength" : 2208,
            "byteOffset" : 2208
        },
        {
            "buffer" : 0,
            "byteLength" : 1472,
            "byteOffset" : 4416
        },
        {
            "buffer" : 0,
            "byteLength" : 600,
            "byteOffset" : 5888
        },
        {
            "buffer" : 0,
            "byteLength" : 480,
            "byteOffset" : 6488
        },
        {
            "buffer" : 0,
            "byteLength" : 480,
            "byteOffset" : 6968
        },
        {
            "buffer" : 0,
            "byteLength" : 320,
            "byteOffset" : 7448
        },
        {
            "buffer" : 0,
            "byteLength" : 120,
            "byteOffset" : 7768
        },
        {
            "buffer" : 0,
            "byteLength" : 480,
            "byteOffset" : 7888
        },
        {
            "buffer" : 0,
            "byteLength" : 480,
            "byteOffset" : 8368
        },
        {
            "buffer" : 0,
            "byteLength" : 320,
            "byteOffset" : 8848
        },
        {
            "buffer" : 0,
            "byteLength" : 120,
            "byteOffset" : 9168
        },
        {
            "buffer" : 0,
            "byteLength" : 19200,
            "byteOffset" : 9288
        },
        {
            "buffer" : 0,
            "byteLength" : 19200,
            "byteOffset" : 28488
        },
        {
            "buffer" : 0,
            "byteLength" : 12800,
            "byteOffset" : 47688
        },
        {
            "buffer" : 0,
            "byteLength" : 4608,
            "byteOffset" : 60488
        },
        {
            "buffer" : 0,
            "byteLength" : 1536,
            "byteOffset" : 65096
        },
        {
            "buffer" : 0,
            "byteLength" : 1536,
            "byteOffset" : 66632
        },
        {
            "buffer" : 0,
            "byteLength" : 1024,
            "byteOffset" : 68168
        },
        {
            "buffer" : 0,
            "byteLength" : 384,
            "byteOffset" : 69192
        },
        {
            "buffer" : 0,
            "byteLength" : 1536,
            "byteOffset" : 69576
        },
        {
            "buffer" : 0,
            "byteLength" : 1536,
            "byteOffset" : 71112
        },
        {
            "buffer" : 0,
            "byteLength" : 1024,
            "byteOffset" : 72648
        },
        {
            "buffer" : 0,
            "byteLength" : 1536,
            "byteOffset" : 73672
        },
        {
            "buffer" : 0,
            "byteLength" : 1536,
            "byteOffset" : 75208
        },
        {
            "buffer" : 0,
            "byteLength" : 1024,
            "byteOffset" : 76744
        },
        {
            "buffer" : 0,
            "byteLength" : 384,
            "byteOffset" : 77768
        }
    ],
    "buffers" : [
        {
            "byteLength" : 78152,
            "uri" : "data:application/octet-stream;base64,"
        }
    ]
}
